<svg width="32" height="32" viewBox="0 0 32 32" fill="none" xmlns="http://www.w3.org/2000/svg">
<path d="M16.0007 10.6654C17.4673 10.6654 18.6673 9.46536 18.6673 7.9987C18.6673 6.53203 17.4673 5.33203 16.0007 5.33203C14.534 5.33203 13.334 6.53203 13.334 7.9987C13.334 9.46536 14.534 10.6654 16.0007 10.6654ZM16.0007 13.332C14.534 13.332 13.334 14.532 13.334 15.9987C13.334 17.4654 14.534 18.6654 16.0007 18.6654C17.4673 18.6654 18.6673 17.4654 18.6673 15.9987C18.6673 14.532 17.4673 13.332 16.0007 13.332ZM16.0007 21.332C14.534 21.332 13.334 22.532 13.334 23.9987C13.334 25.4654 14.534 26.6654 16.0007 26.6654C17.4673 26.6654 18.6673 25.4654 18.6673 23.9987C18.6673 22.532 17.4673 21.332 16.0007 21.332Z" fill="#E0E0E0"/>
</svg>
