<svg width="32" height="32" viewBox="0 0 32 32" fill="none" xmlns="http://www.w3.org/2000/svg">
<g opacity="0.7">
<path d="M19.5807 15.3484L8.51172 13.3984V27.8074C8.51159 27.964 8.54237 28.1191 8.6023 28.2638C8.66223 28.4085 8.75014 28.54 8.86097 28.6506C8.9718 28.7613 9.10338 28.8489 9.24817 28.9086C9.39296 28.9683 9.54811 28.9988 9.70472 28.9984H28.8047C28.9615 28.9991 29.1169 28.9688 29.2619 28.9092C29.4069 28.8496 29.5387 28.762 29.6498 28.6513C29.7608 28.5406 29.8489 28.4091 29.9089 28.2643C29.969 28.1195 29.9999 27.9642 29.9997 27.8074V22.4984L19.5807 15.3484Z" fill="#185C37"/>
<path d="M19.5807 3H9.70472C9.54811 2.99961 9.39296 3.03013 9.24817 3.08982C9.10338 3.14951 8.9718 3.23719 8.86097 3.34784C8.75014 3.45848 8.66223 3.58992 8.6023 3.73461C8.54237 3.8793 8.51159 4.03439 8.51172 4.191V9.5L19.5807 16L25.4417 17.95L29.9997 16V9.5L19.5807 3Z" fill="#21A366"/>
<path d="M8.51172 9.5H19.5807V16H8.51172V9.5Z" fill="#107C41"/>
<path opacity="0.1" d="M16.4337 8.19922H8.51172V24.4492H16.4337C16.7494 24.4476 17.0517 24.3218 17.2752 24.0988C17.4987 23.8759 17.6254 23.5739 17.6277 23.2582V9.39022C17.6254 9.07456 17.4987 8.77254 17.2752 8.54961C17.0517 8.32668 16.7494 8.20079 16.4337 8.19922Z" fill="black"/>
<path opacity="0.2" d="M15.7827 8.85156H8.51172V25.1016H15.7827C16.0984 25.1 16.4007 24.9741 16.6242 24.7512C16.8477 24.5282 16.9744 24.2262 16.9767 23.9106V10.0426C16.9744 9.7269 16.8477 9.42488 16.6242 9.20195C16.4007 8.97902 16.0984 8.85313 15.7827 8.85156Z" fill="black"/>
<path opacity="0.2" d="M15.7827 8.85156H8.51172V23.8016H15.7827C16.0984 23.8 16.4007 23.6741 16.6242 23.4512C16.8477 23.2282 16.9744 22.9262 16.9767 22.6106V10.0426C16.9744 9.7269 16.8477 9.42488 16.6242 9.20195C16.4007 8.97902 16.0984 8.85313 15.7827 8.85156Z" fill="black"/>
<path opacity="0.2" d="M15.1317 8.85156H8.51172V23.8016H15.1317C15.4474 23.8 15.7497 23.6741 15.9732 23.4512C16.1967 23.2282 16.3234 22.9262 16.3257 22.6106V10.0426C16.3234 9.7269 16.1967 9.42488 15.9732 9.20195C15.7497 8.97902 15.4474 8.85313 15.1317 8.85156Z" fill="black"/>
<path d="M3.194 8.85157H15.132C15.4482 8.8513 15.7516 8.9766 15.9755 9.19993C16.1994 9.42326 16.3255 9.72634 16.326 10.0426V21.9606C16.3255 22.2768 16.1994 22.5799 15.9755 22.8032C15.7516 23.0265 15.4482 23.1518 15.132 23.1516H3.194C3.03731 23.1521 2.88205 23.1217 2.73715 23.062C2.59224 23.0024 2.46054 22.9148 2.3496 22.8041C2.23866 22.6934 2.15067 22.5619 2.09068 22.4172C2.03068 22.2724 1.99987 22.1173 2 21.9606V10.0426C1.99987 9.88587 2.03068 9.7307 2.09068 9.58594C2.15067 9.44119 2.23866 9.30971 2.3496 9.19905C2.46054 9.08839 2.59224 9.00073 2.73715 8.9411C2.88205 8.88147 3.03731 8.85104 3.194 8.85157Z" fill="url(#paint0_linear_3821_31413)"/>
<path d="M5.69922 19.8749L8.21022 15.9909L5.91022 12.1289H7.75722L9.01222 14.6019C9.12822 14.8359 9.21222 15.0099 9.25022 15.1259H9.26722C9.34922 14.9386 9.43589 14.7566 9.52722 14.5799L10.8692 12.1329H12.5692L10.2102 15.9729L12.6292 19.8779H10.8202L9.37022 17.1669C9.30309 17.0503 9.24588 16.9282 9.19922 16.8019H9.17522C9.13284 16.925 9.07647 17.0427 9.00722 17.1529L7.51422 19.8749H5.69922Z" fill="white"/>
<path d="M28.8051 3.00001H19.5801V9.50001H29.9991V4.19101C29.9992 4.03431 29.9684 3.87913 29.9084 3.73438C29.8484 3.58963 29.7604 3.45815 29.6495 3.34749C29.5385 3.23682 29.4068 3.14916 29.2619 3.08953C29.117 3.0299 28.9618 2.99948 28.8051 3.00001Z" fill="#33C481"/>
<path d="M19.5801 16H29.9991V22.5H19.5801V16Z" fill="#107C41"/>
</g>
<defs>
<linearGradient id="paint0_linear_3821_31413" x1="4.494" y1="7.91557" x2="13.832" y2="24.0876" gradientUnits="userSpaceOnUse">
<stop stop-color="#18884F"/>
<stop offset="0.5" stop-color="#117E43"/>
<stop offset="1" stop-color="#0B6631"/>
</linearGradient>
</defs>
</svg>
