<svg width="371" height="300" viewBox="0 0 371 300" fill="none" xmlns="http://www.w3.org/2000/svg">
<rect x="371" y="300" width="371" height="300" rx="10" transform="rotate(180 371 300)" fill="url(#paint0_linear_6_4581)"/>
<g clip-path="url(#clip0_6_4581)">
<path d="M168.365 168.868C167.034 168.868 165.895 168.395 164.948 167.447C164 166.5 163.526 165.36 163.524 164.027L163.524 130.142C163.524 128.81 163.999 127.671 164.948 126.724C165.896 125.777 167.036 125.302 168.365 125.301L202.251 125.301C203.582 125.301 204.722 125.775 205.671 126.724C206.62 127.673 207.093 128.812 207.092 130.142L207.092 164.027C207.092 165.359 206.618 166.499 205.671 167.447C204.724 168.396 203.584 168.87 202.251 168.868L168.365 168.868ZM168.365 164.027L202.251 164.027L202.251 130.142L168.365 130.142L168.365 164.027ZM170.786 159.186L199.831 159.186L190.754 147.084L183.493 156.766L178.047 149.505L170.786 159.186Z" fill="black"/>
</g>
<defs>
<linearGradient id="paint0_linear_6_4581" x1="716.315" y1="274.615" x2="221.451" y2="844.099" gradientUnits="userSpaceOnUse">
<stop stop-color="#02833D" stop-opacity="0.08"/>
<stop offset="1" stop-color="white" stop-opacity="0.11"/>
</linearGradient>
<clipPath id="clip0_6_4581">
<rect width="58.0899" height="58.0899" fill="white" transform="translate(156.265 118.043)"/>
</clipPath>
</defs>
</svg>
