<svg width="47" height="26" viewBox="0 0 47 26" fill="none" xmlns="http://www.w3.org/2000/svg">
<path d="M22.7382 13.0015H20.2121C19.8772 13.0015 19.5559 13.1331 19.319 13.3675C19.0822 13.6019 18.9491 13.9198 18.9491 14.2513C18.9491 14.5828 19.0822 14.9007 19.319 15.1351C19.5559 15.3695 19.8772 15.5012 20.2121 15.5012V18.0009H18.7142C18.8642 17.6007 18.9433 17.1778 18.9478 16.751C18.9478 15.9256 18.6725 15.1233 18.1648 14.4685C17.657 13.8137 16.9451 13.343 16.1394 13.1294C15.3337 12.9158 14.4794 12.9712 13.7088 13.287C12.9382 13.6028 12.2944 14.1615 11.8773 14.8762C11.7931 15.0184 11.7381 15.1757 11.7155 15.339C11.693 15.5023 11.7033 15.6685 11.7458 15.8278C11.7884 15.9872 11.8624 16.1366 11.9636 16.2675C12.0648 16.3985 12.1911 16.5083 12.3354 16.5907C12.4796 16.6732 12.6389 16.7265 12.8041 16.7478C12.9693 16.769 13.1371 16.7577 13.2979 16.7145C13.4586 16.6713 13.6091 16.5971 13.7408 16.4961C13.8724 16.3951 13.9826 16.2694 14.0649 16.1261C14.1758 15.9361 14.3352 15.7783 14.5272 15.6686C14.7192 15.5589 14.937 15.5012 15.1587 15.5012C15.4937 15.5012 15.8149 15.6328 16.0518 15.8672C16.2887 16.1016 16.4217 16.4195 16.4217 16.751C16.4217 17.0825 16.2887 17.4004 16.0518 17.6348C15.8149 17.8692 15.4937 18.0009 15.1587 18.0009C14.8237 18.0009 14.5025 18.1325 14.2656 18.3669C14.0287 18.6013 13.8957 18.9192 13.8957 19.2507C13.8957 19.5822 14.0287 19.9001 14.2656 20.1345C14.5025 20.3689 14.8237 20.5006 15.1587 20.5006C15.4937 20.5006 15.8149 20.6323 16.0518 20.8667C16.2887 21.101 16.4217 21.419 16.4217 21.7504C16.4217 22.0819 16.2887 22.3998 16.0518 22.6342C15.8149 22.8686 15.4937 23.0003 15.1587 23.0003C14.937 23.0003 14.7192 22.9425 14.5272 22.8328C14.3352 22.7231 14.1758 22.5654 14.0649 22.3754C13.9826 22.2321 13.8724 22.1063 13.7408 22.0053C13.6091 21.9043 13.4586 21.8301 13.2979 21.7869C13.1371 21.7437 12.9693 21.7324 12.8041 21.7537C12.6389 21.7749 12.4796 21.8283 12.3354 21.9107C12.1911 21.9931 12.0648 22.103 11.9636 22.2339C11.8624 22.3648 11.7884 22.5143 11.7458 22.6736C11.7033 22.833 11.693 22.9991 11.7155 23.1624C11.7381 23.3257 11.7931 23.483 11.8773 23.6252C12.2944 24.34 12.9382 24.8986 13.7088 25.2145C14.4794 25.5303 15.3337 25.5857 16.1394 25.3721C16.9451 25.1584 17.657 24.6877 18.1648 24.0329C18.6725 23.3781 18.9478 22.5758 18.9478 21.7504C18.9433 21.3236 18.8642 20.9008 18.7142 20.5006H20.2109V24.2501C20.2109 24.5816 20.3439 24.8995 20.5808 25.1339C20.8177 25.3683 21.1389 25.5 21.4739 25.5C21.8089 25.5 22.1302 25.3683 22.367 25.1339C22.6039 24.8995 22.737 24.5816 22.737 24.2501V15.5012C23.0719 15.5012 23.3932 15.3695 23.6301 15.1351C23.8669 14.9007 24 14.5828 24 14.2513C24 13.9198 23.8669 13.6019 23.6301 13.3675C23.3932 13.1331 23.0732 13.0015 22.7382 13.0015ZM7.61834 12.0553C7.65767 12.2155 7.72866 12.3665 7.8272 12.4994C7.92574 12.6324 8.0499 12.7447 8.19251 12.83C8.33513 12.9153 8.49338 12.9718 8.65816 12.9963C8.82294 13.0207 8.99098 13.0127 9.15261 12.9726C9.31424 12.9326 9.46626 12.8613 9.59991 12.7628C9.73357 12.6643 9.84621 12.5407 9.93136 12.3989C10.0165 12.2572 10.0725 12.1002 10.096 11.937C10.1196 11.7738 10.1103 11.6075 10.0686 11.4479L7.84947 2.6614C7.69424 2.04421 7.33481 1.49614 6.8284 1.10446C6.322 0.712778 5.69773 0.5 5.05499 0.5C4.41225 0.5 3.78799 0.712778 3.28159 1.10446C2.77518 1.49614 2.41575 2.04421 2.26051 2.6614L0.0400833 11.4479C-0.00156064 11.6075 -0.0108702 11.7738 0.012691 11.937C0.0362523 12.1002 0.0922186 12.2572 0.177366 12.3989C0.262513 12.5407 0.375158 12.6643 0.508812 12.7628C0.642465 12.8613 0.794486 12.9326 0.956115 12.9726C1.11774 13.0127 1.28579 13.0207 1.45057 12.9963C1.61534 12.9718 1.7736 12.9153 1.91621 12.83C2.05883 12.7447 2.18298 12.6324 2.28152 12.4994C2.38007 12.3665 2.45105 12.2155 2.49039 12.0553L3.19769 9.25189H6.91103L7.61834 12.0553ZM3.83047 6.75218L4.71081 3.26883C4.73736 3.19961 4.78457 3.14001 4.84615 3.09795C4.90774 3.0559 4.9808 3.03337 5.05562 3.03337C5.13045 3.03337 5.20351 3.0559 5.2651 3.09795C5.32668 3.14001 5.37388 3.19961 5.40044 3.26883L6.28078 6.75218H3.83047ZM13.8969 6.75218H15.16C15.4948 6.75251 15.8159 6.8843 16.0527 7.11862C16.2895 7.35294 16.4227 7.67065 16.423 8.00203V9.25189C16.423 9.58337 16.5561 9.90127 16.7929 10.1357C17.0298 10.3701 17.3511 10.5017 17.686 10.5017C18.021 10.5017 18.3423 10.3701 18.5792 10.1357C18.816 9.90127 18.9491 9.58337 18.9491 9.25189V8.00203C18.9481 7.00789 18.5486 6.05475 17.8382 5.35179C17.1278 4.64882 16.1646 4.25346 15.16 4.25247H13.8969C13.5619 4.25247 13.2407 4.38415 13.0038 4.61854C12.767 4.85294 12.6339 5.17084 12.6339 5.50232C12.6339 5.83381 12.767 6.15171 13.0038 6.3861C13.2407 6.6205 13.5619 6.75218 13.8969 6.75218ZM8.84475 18.0009H7.58171C7.24683 18.0005 6.92577 17.8688 6.68897 17.6344C6.45218 17.4001 6.319 17.0824 6.31867 16.751V15.5012C6.31867 15.1697 6.1856 14.8518 5.94873 14.6174C5.71186 14.383 5.3906 14.2513 5.05562 14.2513C4.72065 14.2513 4.39938 14.383 4.16252 14.6174C3.92565 14.8518 3.79258 15.1697 3.79258 15.5012V16.751C3.79359 17.7452 4.19312 18.6983 4.9035 19.4013C5.61388 20.1042 6.57708 20.4996 7.58171 20.5006H8.84475C9.17973 20.5006 9.50099 20.3689 9.73786 20.1345C9.97472 19.9001 10.1078 19.5822 10.1078 19.2507C10.1078 18.9192 9.97472 18.6013 9.73786 18.3669C9.50099 18.1325 9.17973 18.0009 8.84475 18.0009Z" fill="#00B251"/>
<path d="M39.2615 17.2617C39.0891 17.2617 38.9454 17.1992 38.8018 17.0742L32.1939 10.0117C31.9354 9.73047 31.9354 9.29297 32.1939 9.01172C32.4525 8.73047 32.8547 8.73047 33.1133 9.01172L39.2615 15.543L45.4097 8.94922C45.6682 8.66797 46.0704 8.66797 46.329 8.94922C46.5876 9.23047 46.5876 9.66797 46.329 9.94922L39.7211 17.0117C39.5775 17.168 39.4338 17.2617 39.2615 17.2617Z" fill="#00B251"/>
</svg>
