<svg width="17" height="26" viewBox="0 0 17 26" fill="none" xmlns="http://www.w3.org/2000/svg">
<path d="M0.654235 25.0386C0.294628 25.0386 0 24.7448 0 24.3852V3.39642C0 3.03601 0.294628 2.74219 0.654235 2.74219H16.3458C16.7062 2.74219 17 3.03641 17 3.39642V24.3852C17 24.7448 16.7058 25.0386 16.3458 25.0386H0.654235Z" fill="#979797"/>
<path d="M16.3458 3.39844H0.654297V24.3872H16.3458V3.39844Z" fill="#F5F5F5"/>
<path d="M16.3453 3.39844H8.38672V24.3872H16.3453V3.39844Z" fill="white"/>
<path d="M13.8931 9.29576C14.9162 8.27271 14.9162 6.61401 13.8931 5.59096C12.8701 4.56791 11.2114 4.56791 10.1883 5.59096C9.16528 6.61401 9.16528 8.27271 10.1883 9.29576C11.2114 10.3188 12.8701 10.3188 13.8931 9.29576Z" fill="#FFF0B8"/>
<path d="M12.0408 8.01322C12.6178 8.01322 13.0855 7.54549 13.0855 6.96852C13.0855 6.39155 12.6178 5.92383 12.0408 5.92383C11.4638 5.92383 10.9961 6.39155 10.9961 6.96852C10.9961 7.54549 11.4638 8.01322 12.0408 8.01322Z" fill="#63B4F7"/>
<path opacity="0.45" d="M11.8428 7.31258C12.1885 7.31258 12.4688 7.0323 12.4688 6.68656C12.4688 6.34082 12.1885 6.06055 11.8428 6.06055C11.4971 6.06055 11.2168 6.34082 11.2168 6.68656C11.2168 7.0323 11.4971 7.31258 11.8428 7.31258Z" fill="#AAAAAA"/>
<path opacity="0.25" d="M13.0861 6.97032C13.0861 7.54731 12.6183 8.01492 12.0413 8.01492C11.595 8.01492 11.214 7.73507 11.0645 7.34129C11.2558 7.5688 11.5427 7.7132 11.8633 7.7132C12.4403 7.7132 12.9081 7.24541 12.9081 6.6684C12.9081 6.53751 12.8839 6.41235 12.84 6.29688C12.9935 6.47875 13.0861 6.71368 13.0861 6.97032Z" fill="#4991FF"/>
<path d="M14.3605 10.9495H9.7225C9.54996 10.9495 9.41679 10.7985 9.43772 10.6275C9.44437 10.5732 9.45273 10.5194 9.46263 10.4661C9.49269 10.3042 9.53778 10.1475 9.59637 9.99738C9.97741 9.01919 10.9284 8.32617 12.0415 8.32617C12.3847 8.32617 12.7125 8.39199 13.0129 8.51222C13.8853 8.85978 14.5271 9.66259 14.6453 10.6275C14.6662 10.7985 14.5331 10.9495 14.3605 10.9495Z" fill="#4991FF"/>
<path opacity="0.2" d="M14.3605 10.9491H9.7225C9.54996 10.9491 9.41679 10.798 9.43772 10.627C9.44437 10.5728 9.45273 10.5189 9.46263 10.4657C10.4264 10.7856 12.3065 10.9818 13.2354 10.4622C14.2968 9.86869 13.4485 8.91218 13.0129 8.51172C13.8853 8.85928 14.5272 9.66209 14.6453 10.627C14.6662 10.798 14.5331 10.9491 14.3605 10.9491Z" fill="#4991FF"/>
<path opacity="0.45" d="M10.9801 10.2787C10.2333 10.2419 9.97435 9.26276 10.5999 8.85313C10.9106 8.64963 11.3335 8.45254 11.8219 8.43437C12.8592 8.39583 12.8628 9.79834 11.7588 10.165C11.4819 10.2569 11.2169 10.2904 10.9801 10.2787Z" fill="#AAAAAA"/>
<g opacity="0.2">
<path d="M14.0022 10.3799C13.998 10.2544 14.0526 10.1508 14.1239 10.1485C14.1953 10.1461 14.2565 10.2459 14.2606 10.3714C14.2648 10.4968 14.2103 10.6004 14.1389 10.6027C14.0675 10.6051 14.0063 10.5053 14.0022 10.3799Z" fill="#4991FF"/>
<path d="M14.0391 10.0069C14.0376 9.96145 14.0732 9.92341 14.1186 9.92192C14.1641 9.92043 14.2021 9.95603 14.2036 10.0014C14.2051 10.0469 14.1695 10.0849 14.1241 10.0864C14.0786 10.0879 14.0406 10.0523 14.0391 10.0069Z" fill="#4991FF"/>
</g>
<g opacity="0.4">
<path d="M10.6245 8.94241C10.7259 8.8684 10.8422 8.85518 10.8843 8.91285C10.9264 8.97053 10.8784 9.07727 10.777 9.15129C10.6756 9.2253 10.5593 9.23852 10.5172 9.18085C10.4751 9.12315 10.5232 9.01641 10.6245 8.94241Z" fill="#AAAAAA"/>
<path d="M10.9576 8.75997C10.9943 8.73318 11.0458 8.7412 11.0726 8.77791C11.0994 8.81462 11.0913 8.86609 11.0546 8.89288C11.0179 8.91967 10.9665 8.91163 10.9397 8.87494C10.9129 8.83825 10.9209 8.78676 10.9576 8.75997Z" fill="#AAAAAA"/>
</g>
<g opacity="0.15">
<path d="M12.4359 7.39902C12.515 7.3357 12.6084 7.32086 12.6444 7.36586C12.6804 7.41087 12.6455 7.49869 12.5664 7.56201C12.4873 7.62532 12.394 7.64016 12.3579 7.59517C12.3219 7.55015 12.3568 7.46234 12.4359 7.39902Z" fill="#4991FF"/>
<path d="M12.6968 7.24308C12.7254 7.22016 12.7672 7.2248 12.7902 7.25344C12.8131 7.28209 12.8084 7.3239 12.7798 7.34682C12.7512 7.36974 12.7094 7.3651 12.6864 7.33646C12.6635 7.30781 12.6681 7.266 12.6968 7.24308Z" fill="#4991FF"/>
</g>
<g opacity="0.3">
<path d="M11.4332 6.27068C11.4749 6.23391 11.5256 6.22332 11.5465 6.24701C11.5674 6.2707 11.5506 6.3197 11.509 6.35647C11.4673 6.39324 11.4166 6.40383 11.3957 6.38014C11.3748 6.35645 11.3916 6.30745 11.4332 6.27068Z" fill="#AAAAAA"/>
<path d="M11.5709 6.17708C11.586 6.16378 11.609 6.16521 11.6223 6.18029C11.6356 6.19537 11.6342 6.21837 11.6191 6.23167C11.604 6.24498 11.581 6.24354 11.5677 6.22847C11.5544 6.21341 11.5558 6.19039 11.5709 6.17708Z" fill="#AAAAAA"/>
</g>
<path d="M10.8979 1.88477H6.10352V4.39152H10.8979V1.88477Z" fill="#FFC800"/>
<path d="M8.50047 2.8123C7.98952 2.8123 7.57422 2.39619 7.57422 1.88524C7.57422 1.37428 7.98952 0.958984 8.50047 0.958984C9.01143 0.958984 9.42674 1.37428 9.42674 1.88524C9.42674 2.39579 9.01143 2.8123 8.50047 2.8123ZM8.50047 1.2859C8.17033 1.2859 7.90154 1.5547 7.90154 1.88484C7.90154 2.21579 8.17033 2.48459 8.50047 2.48459C8.83062 2.48459 9.09942 2.21579 9.09942 1.88484C9.09982 1.5551 8.83102 1.2859 8.50047 1.2859Z" fill="#FFC800"/>
<path d="M7.02446 5.08203H1.54883V5.73627H7.02446V5.08203Z" fill="#B4B4B4"/>
<path d="M7.02487 6.19922H1.54883V6.85345H7.02487V6.19922Z" fill="#B4B4B4"/>
<path d="M7.02446 7.31445H1.54883V7.96869H7.02446V7.31445Z" fill="#B4B4B4"/>
<path d="M7.02446 8.43164H1.54883V9.08508H7.02446V8.43164Z" fill="#B4B4B4"/>
<path d="M7.02446 9.55078H1.54883V10.2042H7.02446V9.55078Z" fill="#B4B4B4"/>
<path d="M15.3309 12.0918H1.54883V12.746H15.3309V12.0918Z" fill="#B4B4B4"/>
<path d="M15.3309 13.2383H1.54883V13.8925H15.3309V13.2383Z" fill="#B4B4B4"/>
<path d="M15.3309 14.3848H1.54883V15.0382H15.3309V14.3848Z" fill="#B4B4B4"/>
<path d="M15.3319 18.9824H9.85547V19.6366H15.3319V18.9824Z" fill="#B4B4B4"/>
<path d="M15.3311 20.0996H9.85547V20.753H15.3311V20.0996Z" fill="#B4B4B4"/>
<path d="M15.3311 21.2148H9.85547V21.8683H15.3311V21.2148Z" fill="#B4B4B4"/>
<path d="M15.3311 22.332H9.85547V22.9863H15.3311V22.332Z" fill="#B4B4B4"/>
<path d="M15.33 16.1836H9.85352V17.6325H15.33V16.1836Z" fill="#B4B4B4"/>
</svg>
    