<svg width="25" height="21" viewBox="0 0 25 21" fill="none" xmlns="http://www.w3.org/2000/svg">
<path d="M20.7166 10.8193L12.4709 3.49023L3.72077 10.8193V20.4683C3.72077 20.4683 3.70324 20.9991 4.21747 20.9991C4.86331 20.9991 10.1923 20.9914 10.1923 20.9914L10.3185 20.991V15.532H14.2395V20.9782H20.0861C20.7462 20.9782 20.7166 20.3181 20.7166 20.3181V10.8193Z" fill="#95A4FC"/>
<path d="M12.544 0L0.5 10.6098C0.5 10.6098 1.24124 11.9804 2.86401 10.6098L12.544 2.42001L21.6252 10.5582C23.5013 11.9113 24.203 10.5582 24.203 10.5582L12.544 0Z" fill="#95A4FC"/>
<path d="M21.4017 7.20442V2.39844H19.0684L19.076 5.23072L21.4017 7.20442Z" fill="#95A4FC"/>
</svg>
