<svg width="18" height="24" viewBox="0 0 18 24" fill="none" xmlns="http://www.w3.org/2000/svg">
<path d="M17.6748 0.308594H0.761719V22.9311H17.6748V0.308594Z" fill="#E6E6E6"/>
<path d="M16.913 1.07031H0V23.6928H16.913V1.07031Z" fill="#F0F0F0"/>
<path d="M15.468 1.97266H1.44531V4.46239H15.468V1.97266Z" fill="#FF6400"/>
<path d="M15.466 5.35547H1.44336V5.95644H15.466V5.35547Z" fill="#B4B4B4"/>
<path d="M15.466 6.53906H1.44336V7.14003H15.466V6.53906Z" fill="#B4B4B4"/>
<path d="M10.4079 7.71484H1.44336V8.31582H10.4079V7.71484Z" fill="#B4B4B4"/>
<path d="M15.2963 9.18343V20.7736H1.61702V9.18343H15.2963ZM15.468 9.01172H1.44531V20.9453H15.468V9.01172Z" fill="#AEAEAE"/>
<path d="M3.24983 9.01172H3.07812V20.9453H3.24983V9.01172Z" fill="#AEAEAE"/>
<path d="M8.42756 9.12109H8.25586V20.9402H8.42756V9.12109Z" fill="#AEAEAE"/>
<path d="M10.4959 9.12109H10.3242V20.9402H10.4959V9.12109Z" fill="#AEAEAE"/>
<path d="M13.6092 9.12109H13.4375V20.9402H13.6092V9.12109Z" fill="#AEAEAE"/>
<path d="M15.468 10.2383H1.44531V10.41H15.468V10.2383Z" fill="#AEAEAE"/>
<path d="M11.9194 21.5586H1.44531V22.1596H11.9194V21.5586Z" fill="#B4B4B4"/>
<path d="M13.3696 15.6242C13.3696 16.1817 13.2207 16.704 12.9605 17.1551C12.6923 17.6191 12.3046 18.0063 11.8398 18.2754C11.3892 18.5356 10.8665 18.6852 10.309 18.6852C9.7519 18.6852 9.22801 18.5356 8.77852 18.2754C8.31415 18.0067 7.92686 17.6194 7.65823 17.1551C7.39762 16.704 7.24805 16.1817 7.24805 15.6242C7.24805 15.0667 7.39762 14.5432 7.65823 14.0934C7.92648 13.6294 8.31377 13.2417 8.77852 12.9723C9.22801 12.7121 9.7519 12.5625 10.309 12.5625C10.8668 12.5625 11.3896 12.7121 11.8398 12.9723C12.3046 13.2413 12.6923 13.629 12.9605 14.0934C13.2207 14.5436 13.3696 15.0667 13.3696 15.6242Z" fill="#F5F5F5"/>
<path d="M9.64258 13.5869C9.64258 12.9131 9.8181 12.7891 10.0131 12.7891C10.2092 12.7891 10.387 12.91 10.387 13.5869C10.387 14.2341 10.2104 14.3955 10.0142 14.3955C9.8181 14.3955 9.64258 14.2341 9.64258 13.5869ZM10.1821 13.5869C10.1821 13.142 10.1398 12.9657 10.0131 12.9657C9.88563 12.9657 9.84633 13.1432 9.84633 13.5869C9.84633 14.0402 9.88983 14.218 10.015 14.218C10.1398 14.218 10.1821 14.0425 10.1821 13.5869Z" fill="#464646"/>
<path d="M10.7095 14.3005V13.0963C10.7095 13.0745 10.7027 13.0623 10.6954 13.0635C10.6954 13.0635 10.6092 13.0852 10.608 13.0852C10.5928 13.0864 10.584 13.0753 10.584 13.0372V12.9326C10.584 12.8979 10.5947 12.8868 10.6099 12.8838L10.8976 12.8097C10.9011 12.8086 10.9041 12.8086 10.9072 12.8086C10.9224 12.8086 10.9312 12.8208 10.9312 12.8601V14.3009C10.9312 14.3478 10.9194 14.3738 10.9026 14.3738H10.7362C10.7202 14.3738 10.7095 14.3475 10.7095 14.3005Z" fill="#464646"/>
<path d="M7.88568 16.2966V15.0924C7.88568 15.0706 7.87882 15.0584 7.87119 15.0596C7.87119 15.0596 7.78533 15.0813 7.78381 15.0813C7.76854 15.0825 7.75977 15.0714 7.75977 15.0332V14.9287C7.75977 14.894 7.77045 14.8829 7.78572 14.8795L8.07342 14.8055C8.07685 14.8047 8.08029 14.8047 8.08334 14.8047C8.0986 14.8047 8.10738 14.8165 8.10738 14.8558V16.2966C8.10738 16.3436 8.09517 16.3695 8.07876 16.3695H7.91201C7.89637 16.3695 7.88568 16.3436 7.88568 16.2966Z" fill="#464646"/>
<path d="M8.37891 15.5752C8.37891 14.9014 8.55443 14.7773 8.74941 14.7773C8.94554 14.7773 9.12335 14.8983 9.12335 15.5752C9.12335 16.2227 8.94668 16.3837 8.75055 16.3837C8.55443 16.3837 8.37891 16.2223 8.37891 15.5752ZM8.91845 15.5752C8.91845 15.1303 8.87609 14.954 8.74979 14.954C8.62235 14.954 8.58266 15.1314 8.58266 15.5752C8.58266 16.0285 8.62616 16.2063 8.75132 16.2063C8.87571 16.2059 8.91845 16.0304 8.91845 15.5752Z" fill="#464646"/>
<path d="M9.44389 16.2966V15.0924C9.44389 15.0706 9.43702 15.0584 9.42977 15.0596C9.42977 15.0596 9.34354 15.0813 9.34239 15.0813C9.32713 15.0825 9.31836 15.0714 9.31836 15.0332V14.9287C9.31836 14.894 9.32942 14.8829 9.3443 14.8795L9.63201 14.8055C9.63544 14.8047 9.6385 14.8047 9.64155 14.8047C9.65719 14.8047 9.66558 14.8165 9.66558 14.8558V16.2966C9.66558 16.3436 9.65337 16.3695 9.63697 16.3695H9.47022C9.45496 16.3695 9.44389 16.3436 9.44389 16.2966Z" fill="#464646"/>
<path d="M10.0322 16.2966V15.0924C10.0322 15.0706 10.0253 15.0584 10.0177 15.0596C10.0177 15.0596 9.93182 15.0813 9.93029 15.0813C9.91503 15.0825 9.90625 15.0714 9.90625 15.0332V14.9287C9.90625 14.894 9.91694 14.8829 9.9322 14.8795L10.2199 14.8055C10.2233 14.8047 10.2268 14.8047 10.2298 14.8047C10.2451 14.8047 10.2539 14.8165 10.2539 14.8558V16.2966C10.2539 16.3436 10.2417 16.3695 10.2252 16.3695H10.0585C10.0429 16.3695 10.0322 16.3436 10.0322 16.2966Z" fill="#464646"/>
<path d="M10.5234 15.5752C10.5234 14.9014 10.699 14.7773 10.8939 14.7773C11.0901 14.7773 11.2679 14.8983 11.2679 15.5752C11.2679 16.2227 11.0912 16.3837 10.8951 16.3837C10.699 16.3837 10.5234 16.2223 10.5234 15.5752ZM11.063 15.5752C11.063 15.1303 11.0206 14.954 10.8943 14.954C10.7669 14.954 10.7272 15.1314 10.7272 15.5752C10.7272 16.0285 10.7707 16.2063 10.8958 16.2063C11.0202 16.2059 11.063 16.0304 11.063 15.5752Z" fill="#464646"/>
<path d="M11.4941 15.5752C11.4941 14.9014 11.6697 14.7773 11.8646 14.7773C12.0608 14.7773 12.2386 14.8983 12.2386 15.5752C12.2386 16.2227 12.0619 16.3837 11.8658 16.3837C11.6697 16.3837 11.4941 16.2223 11.4941 15.5752ZM12.0337 15.5752C12.0337 15.1303 11.9913 14.954 11.8646 14.954C11.7372 14.954 11.6979 15.1314 11.6979 15.5752C11.6979 16.0285 11.7414 16.2063 11.8666 16.2063C11.9913 16.2059 12.0337 16.0304 12.0337 15.5752Z" fill="#464646"/>
<path d="M12.5611 16.2966V15.0924C12.5611 15.0706 12.5542 15.0584 12.547 15.0596C12.547 15.0596 12.4607 15.0813 12.4596 15.0813C12.4443 15.0825 12.4355 15.0714 12.4355 15.0332V14.9287C12.4355 14.894 12.4462 14.8829 12.4615 14.8795L12.7492 14.8055C12.7526 14.8047 12.7557 14.8047 12.7587 14.8047C12.774 14.8047 12.7828 14.8165 12.7828 14.8558V16.2966C12.7828 16.3436 12.7709 16.3695 12.7542 16.3695H12.5878C12.5718 16.3695 12.5611 16.3436 12.5611 16.2966Z" fill="#464646"/>
<path d="M9.93061 18.2857V17.0811C9.93061 17.0593 9.92373 17.0475 9.9161 17.0482C9.9161 17.0482 9.83025 17.07 9.82873 17.07C9.81346 17.0708 9.80469 17.0601 9.80469 17.0219V16.9174C9.80469 16.8823 9.81537 16.8716 9.83063 16.8681L10.1183 16.7941C10.1218 16.793 10.1252 16.793 10.1283 16.793C10.1435 16.793 10.1523 16.8048 10.1523 16.8441V18.2853C10.1523 18.3322 10.1401 18.3582 10.1237 18.3582H9.95693C9.94129 18.3585 9.93061 18.3322 9.93061 18.2857Z" fill="#464646"/>
<path d="M10.5162 18.2857V17.0811C10.5162 17.0593 10.5093 17.0475 10.502 17.0482C10.502 17.0482 10.4158 17.07 10.4147 17.07C10.3994 17.0708 10.3906 17.0601 10.3906 17.0219V16.9174C10.3906 16.8823 10.4017 16.8716 10.417 16.8681L10.7047 16.7941C10.7081 16.793 10.7111 16.793 10.7142 16.793C10.7295 16.793 10.7382 16.8048 10.7382 16.8441V18.2853C10.7382 18.3322 10.726 18.3582 10.7096 18.3582H10.5429C10.5268 18.3585 10.5162 18.3322 10.5162 18.2857Z" fill="#464646"/>
<path d="M12.8482 17.7025L12.3828 18.168L17.143 22.9282L17.6084 22.4628L12.8482 17.7025Z" fill="#323232"/>
<path d="M10.3118 19.4116C9.64709 19.4116 8.99309 19.2368 8.42073 18.9052C7.84647 18.5733 7.3676 18.0948 7.03564 17.5209C6.70444 16.9478 6.5293 16.2934 6.5293 15.6291C6.5293 14.964 6.70405 14.31 7.03564 13.7369C7.3676 13.1634 7.84647 12.6845 8.42035 12.3526C9.5662 11.6898 11.0585 11.6898 12.2044 12.3526C12.779 12.6853 13.2571 13.1638 13.5883 13.7369C13.9199 14.3096 14.0954 14.964 14.0954 15.6291C14.0954 16.2942 13.9199 16.9482 13.5883 17.5209C13.2571 18.0936 12.7779 18.5725 12.2048 18.9052C11.6313 19.2368 10.9772 19.4116 10.3118 19.4116ZM10.3118 12.6136C9.78255 12.6136 9.26095 12.7532 8.80383 13.0176C8.34671 13.2821 7.964 13.6636 7.69957 14.1219C7.43629 14.5779 7.29702 15.0991 7.29702 15.6295C7.29702 16.1599 7.43629 16.6807 7.69957 17.1371C7.964 17.5946 8.34671 17.9765 8.80459 18.2413C9.71578 18.7686 10.9074 18.7694 11.8198 18.2413C12.2769 17.9765 12.6584 17.5946 12.9232 17.1371C13.1869 16.6811 13.3273 16.1599 13.3273 15.6295C13.3273 15.0987 13.1869 14.5779 12.9236 14.1219C12.6588 13.6636 12.2773 13.2821 11.8198 13.0169C11.363 12.7532 10.8418 12.6136 10.3118 12.6136Z" fill="#323232"/>
<path d="M17.7174 23.1895C17.5461 23.3608 17.2687 23.3608 17.0974 23.1895L13.4469 19.5387C13.4061 19.4975 13.3828 19.4418 13.3828 19.3834C13.3828 19.3254 13.4061 19.2697 13.4473 19.2285L13.9128 18.7633C13.9987 18.6779 14.1372 18.6779 14.223 18.7633L17.8735 22.4138C17.9559 22.4962 18.0021 22.6076 18.0021 22.724C18.0021 22.8404 17.9555 22.9518 17.8735 23.0342L17.7174 23.1895Z" fill="#007896"/>
<path opacity="0.5" d="M13.3715 15.6281C13.3715 16.1856 13.2227 16.708 12.9625 17.159C12.6942 17.623 12.3066 18.0103 11.8418 18.2793C11.3912 18.5395 10.8684 18.6891 10.3109 18.6891C9.75385 18.6891 9.22996 18.5395 8.78047 18.2793C8.3161 18.0106 7.92881 17.6233 7.66019 17.159C7.39957 16.708 7.25 16.1856 7.25 15.6281C7.25 15.0706 7.39957 14.5471 7.66019 14.0973C7.92843 13.6333 8.31572 13.2456 8.78047 12.9762C9.22996 12.716 9.75385 12.5664 10.3109 12.5664C10.8688 12.5664 11.3915 12.716 11.8418 12.9762C12.3066 13.2452 12.6942 13.6329 12.9625 14.0973C13.2227 14.5475 13.3715 15.0706 13.3715 15.6281Z" fill="#E6FFFF"/>
<path d="M14.2219 18.7633C14.136 18.6779 13.9975 18.6779 13.9124 18.7633L13.6953 18.9797L17.8113 23.0964L17.8731 23.0342C17.9548 22.9526 18.0017 22.8404 18.0017 22.7248C18.0017 22.6076 17.9548 22.4966 17.8731 22.4142L14.2219 18.7633Z" fill="#008CAA"/>
</svg>
