<svg width="25" height="26" viewBox="0 0 25 26" fill="none" xmlns="http://www.w3.org/2000/svg">
<path d="M20.2057 8.44097L9.93555 12.6719L14.093 22.7638L24.3632 18.5329L20.2057 8.44097Z" fill="#D0A157"/>
<path d="M19.5223 10.0808L11.5781 13.3535L14.7774 21.1195L22.7216 17.8468L19.5223 10.0808Z" fill="#FFCC75"/>
<path d="M13.2588 12.9902L11.9785 13.5176L14.951 20.733L16.2313 20.2056L13.2588 12.9902Z" fill="#D0A157"/>
<path d="M14.7822 12.3613L13.502 12.8887L16.4744 20.1041L17.7547 19.5767L14.7822 12.3613Z" fill="#D0A157"/>
<path d="M16.3154 11.7283L15.0352 12.2559L18.0084 19.4713L19.2887 18.9437L16.3154 11.7283Z" fill="#D0A157"/>
<path d="M17.8271 11.1093L16.5469 11.6367L19.5194 18.8521L20.7996 18.3247L17.8271 11.1093Z" fill="#D0A157"/>
<path d="M19.3447 10.4804L18.0645 11.0078L21.0369 18.2232L22.3172 17.6958L19.3447 10.4804Z" fill="#D0A157"/>
<path d="M15.3444 0.00275278L6.25781 3.74609L9.9362 12.6751L19.0228 8.93171L15.3444 0.00275278Z" fill="#D8B06B"/>
<path d="M14.7377 1.45403L7.70898 4.34961L10.5396 11.2207L17.5684 8.3251L14.7377 1.45403Z" fill="#FFD588"/>
<path d="M13.4175 23.959L5.71832 5.27199L0.34524 3.28447C0.0714775 3.183 -0.0683992 2.87929 0.0330727 2.60518C0.134192 2.33142 0.437904 2.19153 0.712019 2.29265L6.51917 4.44119L13.9918 22.5789L21.8062 19.3593C22.0768 19.2487 22.3851 19.3769 22.4961 19.6465C22.6074 19.9163 22.4788 20.2253 22.2086 20.3363L13.4175 23.959Z" fill="#454444"/>
<path d="M15.316 22.6044C15.6824 23.4941 15.2586 24.5127 14.3682 24.8795C13.4779 25.2462 12.4593 24.822 12.0929 23.9324C11.7261 23.0424 12.1503 22.0242 13.0406 21.6574C13.931 21.2906 14.9492 21.7144 15.316 22.6044Z" fill="#9B9B9B"/>
<path d="M12.6672 20.7393C11.2713 21.3129 10.6047 22.9097 11.1786 24.3053C11.7522 25.7012 13.3483 26.3682 14.745 25.7946C16.1409 25.2206 16.8075 23.6239 16.2332 22.2283C15.66 20.832 14.0639 20.165 12.6672 20.7393ZM14.3458 24.8225C13.4864 25.1755 12.5034 24.7654 12.1504 23.9061C11.797 23.0464 12.2078 22.0638 13.0671 21.7104C13.9265 21.3573 14.9095 21.7674 15.2629 22.6271C15.6156 23.4865 15.2047 24.4695 14.3458 24.8225Z" fill="#3C3C3B"/>
<path d="M14.6804 22.8642C14.902 23.4022 14.6455 24.0188 14.1068 24.2404C13.5681 24.4623 12.9519 24.2055 12.7303 23.6675C12.5083 23.1288 12.7648 22.5125 13.3035 22.2906C13.8422 22.0689 14.4588 22.3258 14.6804 22.8642Z" fill="#D6D6D6"/>
<path d="M17.2799 8.16104L16.1472 8.62789L8.07031 4.48798L9.20306 4.02148L17.2799 8.16104Z" fill="#D8B06B"/>
<path d="M10.7018 10.8703L11.8346 10.4038L9.92176 5.76149L8.24219 4.90039L10.7018 10.8703Z" fill="#D8B06B"/>
<path d="M9.19 4.33984L8.76367 4.51567L9.57968 4.93388L9.37392 4.43427L9.19 4.33984Z" fill="#D8B06B"/>
<path d="M12.0459 10.3137L13.1783 9.84687L11.9159 6.78262L10.2363 5.92188L12.0459 10.3137Z" fill="#D8B06B"/>
<path d="M10.5479 3.46484L9.55469 3.87426L11.0278 4.6293L10.5479 3.46484Z" fill="#D8B06B"/>
<path d="M9.68945 4.5957L9.89522 5.09567L11.5748 5.95641L11.369 5.45681L9.68945 4.5957Z" fill="#D8B06B"/>
<path d="M11.8964 2.9082L10.7637 3.37469L11.3468 4.79001L13.0264 5.65077L11.8964 2.9082Z" fill="#D8B06B"/>
<path d="M11.6875 5.62109L11.8933 6.1207L13.5728 6.9818L13.3671 6.48185L11.6875 5.62109Z" fill="#D8B06B"/>
<path d="M13.3936 9.76065L14.5263 9.29416L13.9139 7.80801L12.2344 6.94727L13.3936 9.76065Z" fill="#D8B06B"/>
<path d="M15.3655 7.50334L13.6855 6.64258L13.8917 7.14219L15.5712 8.00294L15.3655 7.50334Z" fill="#D8B06B"/>
<path d="M14.7392 9.20794L15.7934 8.77387L14.2305 7.97266L14.7392 9.20794Z" fill="#D8B06B"/>
<path d="M13.2441 2.35742L12.1113 2.82426L13.3448 5.81733L15.0241 6.67844L13.2441 2.35742Z" fill="#D8B06B"/>
<path d="M16.1592 8.30815L16.5855 8.13234L15.6797 7.66797L15.8854 8.16758L16.1592 8.30815Z" fill="#D8B06B"/>
<path d="M14.5878 1.80078L13.4551 2.26727L15.3386 6.8388L17.0182 7.69954L14.5878 1.80078Z" fill="#D8B06B"/>
</svg>
